<svg width="80" height="81" viewBox="0 0 80 81" fill="none" xmlns="http://www.w3.org/2000/svg">
<g clip-path="url(#clip0_2196_45889)">
<path d="M11.6707 27.1792C8.90994 27.1792 6.67188 29.4173 6.67188 32.178V55.5059C6.67188 58.2667 8.90994 60.5047 11.6707 60.5047C14.4315 60.5047 16.6695 58.2667 16.6695 55.5059V32.178C16.6695 29.4173 14.4315 27.1792 11.6707 27.1792ZM68.324 27.1792C65.5632 27.1792 63.3252 29.4173 63.3252 32.178V55.5059C63.3252 58.2667 65.5632 60.5047 68.324 60.5047C71.0848 60.5047 73.3228 58.2667 73.3228 55.5059V32.178C73.3228 29.4173 71.0849 27.1792 68.324 27.1792ZM58.3264 27.1792H21.6684C20.7481 27.1792 20.002 27.9253 20.002 28.8456V55.5059C20.0012 59.4656 22.7875 62.8787 26.6672 63.6707V75.5012C26.6672 78.2619 28.9052 80.5 31.666 80.5C34.4268 80.5 36.6648 78.2619 36.6648 75.5012V63.8372H43.33V75.5012C43.33 78.2619 45.5681 80.5 48.3288 80.5C51.0896 80.5 53.3276 78.2619 53.3276 75.5012V63.6707C57.2073 62.8787 59.9936 59.4656 59.9928 55.5059V28.8456C59.9927 27.9253 59.2465 27.1792 58.3264 27.1792ZM52.1112 7.42384L56.1736 3.3648C56.8355 2.72541 56.8537 1.67066 56.2145 1.00863C55.5751 0.346754 54.5204 0.328476 53.8583 0.967702C53.8444 0.981136 53.8308 0.994727 53.8173 1.00863L49.0852 5.74096C46.2179 4.49541 43.1252 3.85268 39.9989 3.85268C36.8728 3.85268 33.78 4.49541 30.9128 5.74096L26.1805 1.00535C25.5187 0.365968 24.4637 0.384401 23.8244 1.04628C23.2008 1.69206 23.2008 2.71573 23.8244 3.36136L27.8835 7.42369C25.4476 9.0354 23.4516 11.2284 22.0756 13.8047C20.6996 16.3811 19.9869 19.2595 20.002 22.1803C20.002 23.1005 20.7481 23.8465 21.6684 23.8465H58.3265C59.2468 23.8465 59.9928 23.1005 59.9928 22.1803C60.0077 19.2596 59.2951 16.3811 57.9191 13.8048C56.5431 11.2285 54.5471 9.03556 52.1112 7.42384Z" fill="#4CAF50"/>
<path d="M31.6663 17.1815C32.5867 17.1815 33.3327 16.4355 33.3327 15.5153C33.3327 14.5949 32.5867 13.8489 31.6663 13.8489C30.746 13.8489 30 14.5949 30 15.5153C30 16.4355 30.746 17.1815 31.6663 17.1815Z" fill="#FAFAFA"/>
<path d="M48.3277 17.1815C49.2481 17.1815 49.9941 16.4355 49.9941 15.5153C49.9941 14.5949 49.2481 13.8489 48.3277 13.8489C47.4075 13.8489 46.6615 14.5949 46.6615 15.5153C46.6615 16.4355 47.4075 17.1815 48.3277 17.1815Z" fill="#FAFAFA"/>
</g>
<defs>
<clipPath id="clip0_2196_45889">
<rect width="80" height="80" fill="white" transform="translate(0 0.5)"/>
</clipPath>
</defs>
</svg>
