<svg width="78" height="81" viewBox="0 0 78 81" fill="none" xmlns="http://www.w3.org/2000/svg">
<g clip-path="url(#clip0_868_6964)">
<mask id="mask0_868_6964" style="mask-type:luminance" maskUnits="userSpaceOnUse" x="0" y="0" width="78" height="81">
<path d="M77.5 0.5H0.5V80.4562H77.5V0.5Z" fill="white"/>
</mask>
<g mask="url(#mask0_868_6964)">
<path d="M38.3809 0.601562L0.751953 13.8097L6.69834 62.9815L38.4207 80.3713L70.3068 62.7459L76.2508 13.5759L38.3809 0.601562Z" fill="#B3B3B3"/>
<path d="M72.4977 16.419L38.293 4.78516V76.2181L66.958 60.3948L72.4977 16.419Z" fill="#A6120D"/>
<path d="M4.97461 16.6259L10.0702 60.6024L38.2925 76.2154V4.78125L4.97461 16.6259Z" fill="#DD1B16"/>
<path d="M47.7079 42.81L38.2924 47.2016H28.3687L23.7038 58.8393L15.0273 58.9992L38.2924 7.37695L47.7079 42.81ZM46.7977 40.5992L38.3551 23.9286L31.4298 40.3123H38.2921L46.7977 40.5992Z" fill="#F2F2F2"/>
<path d="M38.293 7.37891L38.3552 23.9307L46.2132 40.3272H38.3108L38.293 47.1931L49.2204 47.2035L54.3276 59.0032L62.6298 59.1567L38.293 7.37891Z" fill="#B3B3B3"/>
</g>
</g>
<defs>
<clipPath id="clip0_868_6964">
<rect width="77" height="80" fill="white" transform="translate(0.5 0.5)"/>
</clipPath>
</defs>
</svg>
