<svg width="100" height="81" viewBox="0 0 100 81" fill="none" xmlns="http://www.w3.org/2000/svg">
<g clip-path="url(#clip0_868_7044)">
<path d="M11.0312 10.9549C10.8438 5.51569 15.0645 0.5 20.7695 0.5H79.2383C84.9434 0.5 89.1641 5.51569 88.9766 10.9549C88.7949 16.1804 89.0293 22.9471 90.7266 28.4667C92.4297 34.002 95.2988 37.502 100 37.951V43.049C95.2988 43.498 92.4297 46.998 90.7266 52.5333C89.0293 58.0529 88.7949 64.8196 88.9766 70.0451C89.1641 75.4843 84.9434 80.5 79.2383 80.5H20.7695C15.0645 80.5 10.8438 75.4843 11.0312 70.0451C11.2129 64.8196 10.9766 58.0529 9.28125 52.5333C7.57812 46.998 4.70117 43.498 0 43.049V37.951C4.70117 37.502 7.57812 34.002 9.28125 28.4667C10.9766 22.9471 11.2129 16.1804 11.0312 10.9549Z" fill="url(#paint0_linear_868_7044)"/>
<path fill-rule="evenodd" clip-rule="evenodd" d="M66.9727 49.7344C66.9727 57.2246 61.4063 61.7658 52.168 61.7658H34.7461V19.2168H52.0781C59.7813 19.2168 64.8359 23.4031 64.8359 29.8305C64.8359 34.3423 61.4375 38.3835 57.1035 39.0893V39.3266C63.002 39.9756 66.9727 44.0737 66.9727 49.7344ZM41.4863 56.3697V42.3639H50.3926C56.7715 42.3639 60.082 44.7227 60.082 49.3227C60.082 53.9227 56.8633 56.3697 50.7852 56.3697H41.4863ZM41.4863 24.6129H50.4531C55.3281 24.6129 58.0957 26.7952 58.0957 30.7462C58.0957 34.9619 54.877 37.3207 49.0391 37.3207H41.4863V24.6129Z" fill="white"/>
</g>
<defs>
<linearGradient id="paint0_linear_868_7044" x1="14.8438" y1="2.46078" x2="102.413" y2="71.7348" gradientUnits="userSpaceOnUse">
<stop stop-color="#9013FE"/>
<stop offset="1" stop-color="#6610F2"/>
</linearGradient>
<clipPath id="clip0_868_7044">
<rect width="100" height="80" fill="white" transform="translate(0 0.5)"/>
</clipPath>
</defs>
</svg>
