<svg width="58" height="81" viewBox="0 0 58 81" fill="none" xmlns="http://www.w3.org/2000/svg">
<g clip-path="url(#clip0_868_7019)">
<mask id="mask0_868_7019" style="mask-type:luminance" maskUnits="userSpaceOnUse" x="0" y="0" width="57" height="81">
<path d="M56.3533 0.5H0V80.5H56.3533V0.5Z" fill="white"/>
</mask>
<g mask="url(#mask0_868_7019)">
<path d="M56.3533 16.2227L51.2195 74.0663L28.1421 80.5008L5.12849 74.0753L0 16.2227H56.3533Z" fill="#264DE4"/>
<path d="M46.8233 70.3812L51.2106 20.9512H28.1758V75.5808L46.8233 70.3812Z" fill="#2965F1"/>
<path d="M11.7578 42.4102L12.3901 49.5055H28.1776V42.4102H11.7578Z" fill="#EBEBEB"/>
<path d="M28.1765 28.0469H28.1521H10.4863L11.1276 35.1422H28.1765V28.0469Z" fill="#EBEBEB"/>
<path d="M28.1773 68.2174V60.8353L28.1463 60.8434L20.2893 58.7098L19.787 53.0508H15.9691H12.7051L13.6935 64.1916L28.1448 68.2264L28.1773 68.2174Z" fill="#EBEBEB"/>
<path d="M13.2617 0.5H21.8063V4.09375H16.8349V7.6875H21.8063V11.2812H13.2617V0.5Z" fill="black"/>
<path d="M23.5156 0.5H32.0602V3.625H27.0888V4.25H32.0602V11.4375H23.5156V8.15625H28.4871V7.53125H23.5156V0.5Z" fill="black"/>
<path d="M33.7695 0.5H42.3141V3.625H37.3427V4.25H42.3141V11.4375H33.7695V8.15625H38.741V7.53125H33.7695V0.5Z" fill="black"/>
<path d="M36.8396 49.5034L36.0208 58.7055L28.1523 60.8415V68.2234L42.6152 64.192L42.7213 62.9932L44.3791 44.3134L44.5513 42.408L45.8248 28.0469H28.1523V35.1422H38.0934L37.4514 42.408H28.1523V49.5034H36.8396Z" fill="white"/>
</g>
</g>
<defs>
<clipPath id="clip0_868_7019">
<rect width="58" height="80" fill="white" transform="translate(0 0.5)"/>
</clipPath>
</defs>
</svg>
