<svg width="80" height="81" viewBox="0 0 80 81" fill="none" xmlns="http://www.w3.org/2000/svg">
<mask id="mask0_868_7008" style="mask-type:luminance" maskUnits="userSpaceOnUse" x="8" y="3" width="65" height="75">
<path d="M72.6168 3.5H8V77.5H72.6168V3.5Z" fill="white"/>
</mask>
<g mask="url(#mask0_868_7008)">
<path d="M13.4106 69.7499L8 3.625L72.6168 3.75788L66.8956 69.7499L40.5523 77.3778L13.4106 69.7499Z" fill="#E34F26"/>
<path d="M40.5527 70.991V9.92188L67.1624 10.0105L62.4172 64.6486L40.5527 70.991Z" fill="#EF652A"/>
<path d="M59.8448 25.1793L60.5983 17.1074H19.6641L21.9257 41.8546H50.1763L49.0684 52.4095L40.021 54.8483L30.8407 52.1876L30.353 45.89H22.2363L23.3452 58.7514L40.0205 63.408L56.8287 58.7514L59.0903 33.6498H29.4213L28.5786 25.1793H59.8448Z" fill="white"/>
</g>
</svg>
