<svg width="80" height="81" viewBox="0 0 80 81" fill="none" xmlns="http://www.w3.org/2000/svg">
<g clip-path="url(#clip0_2196_45893)">
<path d="M55.3948 0.5H55.9639C56.4207 6.14177 54.2672 10.3573 51.65 13.41C49.0821 16.4417 45.5656 19.382 39.8783 18.9359C39.4988 13.3749 41.6557 9.47203 44.2693 6.42632C46.6933 3.58787 51.1372 1.06207 55.3948 0.5ZM72.6117 59.2221V59.3803C71.0133 64.2211 68.7335 68.3699 65.9512 72.22C63.4113 75.7153 60.2989 80.4192 54.7415 80.4192C49.9392 80.4192 46.7495 77.3313 41.8279 77.2471C36.6217 77.1627 33.7587 79.8291 28.9987 80.5H27.3757C23.8803 79.9941 21.0595 77.226 19.0044 74.7317C12.9446 67.3616 8.26182 57.8416 7.39062 45.6588V42.0791C7.75948 33.36 11.9961 26.2709 17.6273 22.8352C20.5992 21.0085 24.6848 19.4523 29.234 20.1479C31.1837 20.45 33.1756 21.1173 34.9215 21.7779C36.576 22.4137 38.6452 23.5413 40.6053 23.4816C41.9333 23.4429 43.2541 22.7509 44.5925 22.2627C48.5131 20.8469 52.3561 19.2239 57.4219 19.9863C63.5097 20.9067 67.8307 23.6116 70.5004 27.7849C65.3505 31.0625 61.2789 36.0017 61.9745 44.4363C62.5928 52.098 67.0472 56.5804 72.6117 59.2221Z" fill="black"/>
</g>
<defs>
<clipPath id="clip0_2196_45893">
<rect width="80" height="80" fill="white" transform="translate(0 0.5)"/>
</clipPath>
</defs>
</svg>
