<svg width="80" height="81" viewBox="0 0 80 81" fill="none" xmlns="http://www.w3.org/2000/svg">
<g clip-path="url(#clip0_868_7050)">
<mask id="mask0_868_7050" style="mask-type:luminance" maskUnits="userSpaceOnUse" x="0" y="0" width="80" height="81">
<path d="M80 0.5H0V80.5H80V0.5Z" fill="white"/>
</mask>
<g mask="url(#mask0_868_7050)">
<path d="M80 0.5H0V80.5H80V0.5Z" fill="#F7DF1E"/>
<path d="M53.74 63.0015C55.3515 65.6325 57.448 67.5665 61.1558 67.5665C64.2708 67.5665 66.2606 66.0097 66.2606 63.8587C66.2606 61.2809 64.2161 60.3679 60.7876 58.8682L58.9083 58.0619C53.4835 55.7507 49.8796 52.8555 49.8796 46.7349C49.8796 41.0967 54.1756 36.8047 60.8891 36.8047C65.669 36.8047 69.1051 38.4682 71.5813 42.8237L65.7273 46.5824C64.4385 44.2714 63.048 43.3609 60.8891 43.3609C58.6873 43.3609 57.2918 44.7577 57.2918 46.5824C57.2918 48.8377 58.6886 49.7507 61.914 51.1475L63.7933 51.9525C70.1806 54.6917 73.787 57.484 73.787 63.7622C73.787 70.5304 68.4701 74.2384 61.3298 74.2384C54.3483 74.2384 49.8378 70.9114 47.6308 66.5507L53.74 63.0015ZM27.1838 63.6529C28.3648 65.7482 29.4391 67.5195 32.022 67.5195C34.4918 67.5195 36.0498 66.5532 36.0498 62.7957V37.2339H43.5673V62.8974C43.5673 70.6815 39.0035 74.2244 32.342 74.2244C26.3228 74.2244 22.8371 71.1094 21.0645 67.3577L27.1838 63.6529Z" fill="black"/>
</g>
</g>
<defs>
<clipPath id="clip0_868_7050">
<rect y="0.5" width="80" height="80" rx="3" fill="white"/>
</clipPath>
</defs>
</svg>
