<svg width="80" height="81" viewBox="0 0 80 81" fill="none" xmlns="http://www.w3.org/2000/svg">
<path d="M40 75.5C59.33 75.5 75 59.83 75 40.5C75 21.17 59.33 5.5 40 5.5C20.67 5.5 5 21.17 5 40.5C5 59.83 20.67 75.5 40 75.5Z" fill="#0769AD"/>
<path d="M56.6438 34.0527C59.7863 34.0527 62.6636 33.0047 64.8881 31.2665C62.5786 34.3095 58.7523 36.299 54.4228 36.299C47.3698 36.299 41.6523 31.0192 41.6523 24.5064C41.6523 20.8952 43.4101 17.6631 46.1786 15.5C44.7258 17.4142 43.8733 19.7453 43.8733 22.2601C43.8733 28.773 49.5908 34.0527 56.6438 34.0527Z" fill="#78CFF5"/>
<path d="M64.7653 42.1468C61.3773 44.8043 56.9913 46.4073 52.2005 46.4073C41.4678 46.4073 32.767 38.362 32.767 28.4375C32.767 24.5883 34.076 21.0218 36.3045 18.0977C32.1025 21.3938 29.4355 26.3123 29.4355 31.8068C29.4355 41.7313 38.1363 49.7768 48.869 49.7768C55.4393 49.7768 61.2478 46.762 64.7653 42.1468Z" fill="#78CFF5"/>
<path d="M65 52.4241C60.1722 57.0311 53.4842 59.8833 46.0938 59.8833C31.3742 59.8833 19.442 48.5696 19.442 34.6133C19.442 30.1908 20.6401 26.0338 22.7454 22.418C17.958 26.9863 15 33.2801 15 40.2288C15 54.1851 26.9322 65.4988 41.6517 65.4988C51.7067 65.4988 60.4615 60.2191 65 52.4241Z" fill="#78CFF5"/>
</svg>
