<svg width="80" height="81" viewBox="0 0 80 81" fill="none" xmlns="http://www.w3.org/2000/svg">
<g clip-path="url(#clip0_868_6992)">
<mask id="mask0_868_6992" style="mask-type:luminance" maskUnits="userSpaceOnUse" x="0" y="0" width="80" height="81">
<path d="M80 0.5H0V80.5H80V0.5Z" fill="white"/>
</mask>
<g mask="url(#mask0_868_6992)">
<path d="M37.3802 0.521528C37.2082 0.537166 36.6608 0.591899 36.1681 0.630994C24.8055 1.65528 14.1622 7.78536 7.42131 17.2073C3.66765 22.446 1.26686 28.3884 0.359726 34.6826C0.0391006 36.8799 0 37.5288 0 40.5079C0 43.4869 0.0391006 44.1359 0.359726 46.333C2.53373 61.3533 13.2239 73.9731 27.7224 78.6489C30.3186 79.4855 33.0557 80.0563 36.1681 80.4003C37.3802 80.5332 42.6197 80.5332 43.8319 80.4003C49.2042 79.8061 53.7556 78.4769 58.2444 76.1859C58.9325 75.834 59.0655 75.7402 58.9716 75.662C58.9091 75.6151 55.9765 71.6821 52.4575 66.9283L46.0606 58.2882L38.045 46.4268C33.6344 39.9058 30.0059 34.5732 29.9746 34.5732C29.9433 34.5654 29.912 39.8354 29.8964 46.2704C29.8729 57.5376 29.8651 57.9911 29.7244 58.2569C29.521 58.6401 29.3646 58.7965 29.0361 58.9685C28.7859 59.0936 28.567 59.117 27.3861 59.117H26.0332L25.6735 58.8903C25.4389 58.7417 25.2669 58.5462 25.1495 58.3195L24.9854 57.9676L25.001 42.2905L25.0245 26.6056L25.2669 26.3008C25.392 26.1365 25.6579 25.9254 25.8455 25.8238C26.1661 25.6674 26.2912 25.6518 27.6441 25.6518C29.2395 25.6518 29.5054 25.7143 29.9199 26.1678C30.0371 26.2929 34.3774 32.8296 39.5699 40.7033C44.7625 48.577 51.8631 59.3281 55.3509 64.606L61.6853 74.1999L62.0059 73.9888C64.8446 72.1435 67.8475 69.5163 70.2249 66.7796C75.2845 60.9701 78.5455 53.8861 79.6403 46.333C79.9609 44.1359 80 43.4869 80 40.5079C80 37.5288 79.9609 36.8799 79.6403 34.6826C77.4662 19.6624 66.7761 7.04256 52.2776 2.36681C49.7204 1.538 46.999 0.96721 43.9491 0.623175C43.1984 0.544985 38.0294 0.458976 37.3802 0.521528ZM53.7556 24.7135C54.131 24.9011 54.436 25.2607 54.5455 25.6361C54.608 25.8394 54.6236 30.1868 54.608 39.984L54.5845 54.0425L52.1056 50.2425L49.6188 46.4425V36.223C49.6188 29.616 49.65 25.902 49.697 25.7221C49.8221 25.2843 50.0957 24.9403 50.4711 24.7369C50.7917 24.5728 50.9091 24.5571 52.1369 24.5571C53.2943 24.5571 53.4975 24.5728 53.7556 24.7135Z" fill="black"/>
</g>
</g>
<defs>
<clipPath id="clip0_868_6992">
<rect width="80" height="80" fill="white" transform="translate(0 0.5)"/>
</clipPath>
</defs>
</svg>
