<svg width="74" height="81" viewBox="0 0 74 81" fill="none" xmlns="http://www.w3.org/2000/svg">
<g clip-path="url(#clip0_2196_45825)">
<path d="M33.3727 1.35349C35.3474 0.21807 37.9193 0.212942 39.8921 1.35349C49.8176 6.98755 59.7463 12.6128 69.6702 18.2503C71.5368 19.3065 72.7853 21.3932 72.7663 23.5538V57.4505C72.7801 59.7005 71.4082 61.8372 69.439 62.8695C59.5462 68.4725 49.6584 74.0823 39.767 79.6853C37.7516 80.843 35.128 80.7538 33.1756 79.5013C30.2097 77.774 27.2387 76.0553 24.2724 74.3298C23.6664 73.967 22.9832 73.678 22.5551 73.0877C22.9336 72.5753 23.61 72.5115 24.1596 72.2878C25.3976 71.8923 26.5348 71.2577 27.6721 70.6417C27.9596 70.4438 28.3108 70.5197 28.5864 70.6965C31.1227 72.1573 33.6365 73.6607 36.1812 75.1075C36.7241 75.4223 37.2737 75.0043 37.7378 74.7445C47.4458 69.2327 57.1656 63.7417 66.8719 58.228C67.2316 58.0543 67.4304 57.6708 67.4012 57.275C67.408 46.0932 67.4028 34.9095 67.4047 23.7277C67.4458 23.2787 67.187 22.8657 66.7828 22.682C56.9244 17.1046 47.0708 11.5187 37.2139 5.93988C37.0431 5.82195 36.8407 5.75867 36.6335 5.75837C36.4263 5.75805 36.2239 5.82073 36.0527 5.93818C26.1958 11.5187 16.344 17.1097 6.48706 22.6868C6.0843 22.8708 5.814 23.2768 5.86193 23.7277C5.86364 34.9095 5.86193 46.0932 5.86193 57.2767C5.84484 57.4698 5.88707 57.6635 5.98291 57.8318C6.07876 58 6.22361 58.1348 6.398 58.2178C9.02836 59.7162 11.6621 61.2042 14.2942 62.6973C15.777 63.4992 17.5976 63.9755 19.2313 63.3612C20.6731 62.8418 21.6836 61.364 21.6561 59.8262C21.6697 48.7097 21.6493 37.5913 21.6662 26.4765C21.6302 25.983 22.0962 25.5753 22.5739 25.6218C23.8378 25.6132 25.1033 25.6047 26.3671 25.6252C26.8946 25.6132 27.2577 26.1447 27.1924 26.6418C27.1873 37.8287 27.2061 49.016 27.184 60.2028C27.1873 63.1843 25.968 66.4285 23.2227 67.8872C19.8409 69.6472 15.6607 69.274 12.3196 67.5863C9.42714 66.1362 6.66687 64.4245 3.82578 62.8708C1.85145 61.8443 0.486346 59.6992 0.500244 57.4508V23.5538C0.479539 21.3485 1.7777 19.2238 3.70239 18.183C13.5936 12.5755 23.4832 6.96362 33.3727 1.35349Z" fill="#8CC84B"/>
<path d="M42.0017 24.8342C46.3158 24.5552 50.934 24.6688 54.816 26.8038C57.8216 28.4398 59.488 31.8733 59.5409 35.2278C59.457 35.6802 58.9863 35.9298 58.5562 35.8988C57.3046 35.897 56.0527 35.9158 54.8011 35.8902C54.27 35.9107 53.9614 35.419 53.8949 34.9475C53.5352 33.3425 52.6638 31.7528 51.16 30.9787C48.8516 29.8177 46.1751 29.8762 43.6578 29.9003C41.8202 29.9983 39.8442 30.1582 38.2873 31.2437C37.0921 32.066 36.7291 33.726 37.1556 35.0628C37.5578 36.0227 38.6609 36.3325 39.5635 36.618C44.7622 37.9838 50.2714 37.848 55.3711 39.6455C57.4825 40.3783 59.5479 41.803 60.2704 44.0237C61.2158 46.9998 60.8015 50.5575 58.6935 52.9468C56.9841 54.913 54.4945 55.9832 52.0113 56.5645C48.7079 57.3043 45.2797 57.3232 41.9249 56.9947C38.7704 56.6333 35.4877 55.8008 33.0525 53.6417C30.97 51.8253 29.953 48.9952 30.0539 46.2637C30.0781 45.8023 30.5352 45.4807 30.9752 45.5187C32.2356 45.5083 33.496 45.505 34.7564 45.5203C35.26 45.4842 35.6332 45.9212 35.659 46.3978C35.8916 47.927 36.4636 49.532 37.7911 50.4387C40.3527 52.0988 43.567 51.9852 46.5003 52.0317C48.9305 51.9233 51.6584 51.8907 53.6415 50.2772C54.6879 49.3568 54.9978 47.817 54.7151 46.4925C54.4087 45.3742 53.2442 44.853 52.2441 44.5123C47.1118 42.8813 41.5411 43.4732 36.4585 41.6288C34.3951 40.8963 32.3998 39.5113 31.6071 37.3818C30.501 34.3678 31.0077 30.64 33.3366 28.3313C35.6074 26.0348 38.8852 25.1507 42.0017 24.8342Z" fill="#8CC84B"/>
</g>
<defs>
<clipPath id="clip0_2196_45825">
<rect width="73" height="80" fill="white" transform="translate(0.5 0.5)"/>
</clipPath>
</defs>
</svg>
