<svg width="80" height="81" viewBox="0 0 80 81" fill="none" xmlns="http://www.w3.org/2000/svg">
<mask id="mask0_2196_45830" style="mask-type:luminance" maskUnits="userSpaceOnUse" x="5" y="22" width="70" height="38">
<path d="M74.225 22H5.77499V59.0772H74.225V22Z" fill="white"/>
</mask>
<g mask="url(#mask0_2196_45830)">
<path d="M5.77499 41.1037C5.77499 51.0299 21.0984 59.0771 40 59.0771C58.9016 59.0771 74.225 51.0299 74.225 41.1037C74.225 31.1773 58.9016 23.1301 40 23.1301C21.0984 23.1301 5.77499 31.1773 5.77499 41.1037Z" fill="url(#paint0_radial_2196_45830)"/>
<path d="M40 57.7423C58.1631 57.7423 72.8878 50.2929 72.8878 41.1033C72.8878 31.9142 58.1631 24.4644 40 24.4644C21.8366 24.4644 7.11191 31.9142 7.11191 41.1033C7.11191 50.2929 21.8366 57.7423 40 57.7423Z" fill="#777BB3"/>
<path d="M24.3697 43.1665C25.8632 43.1665 26.9781 42.8915 27.6835 42.3496C28.3814 41.8131 28.8636 40.8837 29.1161 39.5871C29.3517 38.3753 29.262 37.529 28.8496 37.0725C28.4278 36.6062 27.516 36.3696 26.1394 36.3696H23.7527L22.4296 43.1665H24.3697ZM16.5632 51.539C16.4524 51.539 16.3472 51.4896 16.2767 51.4043C16.2062 51.3187 16.1776 51.2062 16.1988 51.0978L19.7054 33.0856C19.7393 32.9115 19.8922 32.7859 20.07 32.7859H27.6278C30.003 32.7859 31.7709 33.4296 32.8822 34.6996C33.9994 35.9765 34.3444 37.7609 33.9075 40.004C33.7297 40.9178 33.4241 41.7662 32.9987 42.5259C32.5731 43.2865 32.0103 43.9906 31.3263 44.6184C30.5074 45.3834 29.5805 45.9384 28.5738 46.265C27.583 46.5871 26.3108 46.7503 24.7922 46.7503H21.7319L20.8581 51.239C20.8241 51.4134 20.6714 51.539 20.4936 51.539H16.5632Z" fill="black"/>
<path d="M24.059 36.7401H26.1396C27.8009 36.7401 28.378 37.1042 28.5741 37.321C28.8994 37.681 28.9609 38.4404 28.7516 39.5167C28.5168 40.7217 28.0813 41.576 27.4571 42.0557C26.8181 42.5467 25.7794 42.7957 24.3697 42.7957H22.8801L24.059 36.7401ZM27.6278 32.4148H20.0699C19.7145 32.4148 19.4088 32.6667 19.341 33.0148L15.8343 51.027C15.792 51.2445 15.8492 51.4692 15.9901 51.6398C16.1313 51.811 16.3415 51.9098 16.5633 51.9098H20.4936C20.8492 51.9098 21.1549 51.6582 21.2227 51.3098L22.0381 47.121H24.7924C26.3499 47.121 27.661 46.9517 28.689 46.617C29.7463 46.2742 30.719 45.6929 31.58 44.8892C32.2922 44.2351 32.8787 43.501 33.3231 42.707C33.7675 41.9126 34.0869 41.027 34.2722 40.0745C34.7322 37.7135 34.3584 35.8229 33.1619 34.4557C31.9772 33.1017 30.115 32.4148 27.6278 32.4148ZM21.979 43.5373H24.3697C25.9543 43.5373 27.1347 43.2392 27.9101 42.6432C28.6859 42.047 29.209 41.0523 29.4808 39.6579C29.7409 38.3192 29.6224 37.3745 29.1254 36.8242C28.6279 36.2742 27.6326 35.9989 26.1396 35.9989H23.4466L21.979 43.5373ZM27.6278 33.1564C29.9015 33.1564 31.56 33.752 32.6028 34.9435C33.645 36.1351 33.959 37.7979 33.5431 39.9332C33.3719 40.8126 33.0822 41.6167 32.6747 42.3454C32.2665 43.0742 31.7337 43.7407 31.0751 44.3454C30.2902 45.0785 29.4185 45.601 28.459 45.912C27.4997 46.2242 26.2778 46.3795 24.7924 46.3795H21.4258L20.4936 51.1682H16.5633L20.0699 33.1564H27.6278Z" fill="white"/>
<path d="M42.9194 46.7505C42.8084 46.7505 42.7034 46.7008 42.6328 46.6155C42.5622 46.5302 42.5337 46.4177 42.5547 46.3089L44.1059 38.3393C44.2534 37.5814 44.2172 37.0374 44.0037 36.8077C43.8728 36.6671 43.4803 36.4314 42.3191 36.4314H39.5091L37.5587 46.4505C37.5247 46.6246 37.3719 46.7505 37.1941 46.7505H33.2947C33.1841 46.7505 33.0787 46.7008 33.0081 46.6155C32.9378 46.5302 32.9091 46.4177 32.9303 46.3089L36.4369 28.297C36.4709 28.1229 36.6237 27.9971 36.8016 27.9971H40.7006C40.8116 27.9971 40.9169 28.0465 40.9875 28.1319C41.0581 28.2174 41.0866 28.3297 41.0653 28.4385L40.2191 32.7858H43.2422C45.5453 32.7858 47.1072 33.1911 48.0166 34.0252C48.9437 34.8758 49.2331 36.2361 48.8766 38.0686L47.245 46.4505C47.2112 46.6246 47.0584 46.7505 46.8806 46.7505H42.9194Z" fill="black"/>
<path d="M40.7006 27.6262H36.8012C36.4456 27.6262 36.14 27.8778 36.0722 28.2262L32.5656 46.2383C32.5231 46.4555 32.5803 46.6802 32.7216 46.8512C32.8628 47.0221 33.0728 47.1212 33.2947 47.1212H37.1941C37.5494 47.1212 37.8553 46.8693 37.9231 46.5212L39.815 36.8021H42.3191C43.4781 36.8021 43.7212 37.0493 43.7309 37.0599C43.8012 37.1355 43.8938 37.4849 43.7413 38.2687L42.19 46.2383C42.1475 46.4555 42.205 46.6802 42.3459 46.8512C42.4872 47.0221 42.6975 47.1212 42.9191 47.1212H46.8803C47.2359 47.1212 47.5416 46.8693 47.6094 46.5212L49.2409 38.1393C49.6238 36.1718 49.2962 34.6958 48.2678 33.7521C47.2863 32.8524 45.6425 32.4149 43.2422 32.4149H40.6694L41.4297 28.5092C41.4719 28.2918 41.415 28.0669 41.2738 27.8961C41.1325 27.7252 40.9225 27.6262 40.7006 27.6262ZM40.7006 28.3677L39.7684 33.1565H43.2422C45.4278 33.1565 46.9353 33.5374 47.7653 34.298C48.595 35.0593 48.8434 36.2927 48.5119 37.9977L46.8803 46.3796H42.9191L44.4703 38.4102C44.6469 37.5033 44.5819 36.8852 44.2753 36.5555C43.9688 36.2258 43.3166 36.0605 42.3191 36.0605H39.2025L37.1941 46.3796H33.2947L36.8012 28.3677H40.7006Z" fill="white"/>
<path d="M55.0462 43.1665C56.5397 43.1665 57.6547 42.8915 58.3603 42.3496C59.0581 41.8134 59.5403 40.8837 59.7931 39.5871C60.0287 38.3753 59.9387 37.529 59.5262 37.0725C59.1047 36.6062 58.1928 36.3696 56.8162 36.3696H54.4294L53.1062 43.1665H55.0462ZM47.24 51.539C47.1291 51.539 47.0241 51.4896 46.9534 51.4043C46.8831 51.3187 46.8544 51.2062 46.8756 51.0978L50.3822 33.0856C50.4162 32.9115 50.5691 32.7859 50.7469 32.7859H58.3044C60.68 32.7859 62.4475 33.4296 63.5591 34.6996C64.6762 35.9762 65.0209 37.7609 64.5844 40.004C64.4062 40.9178 64.1006 41.7662 63.6753 42.5259C63.2497 43.2865 62.6872 43.9906 62.0028 44.6184C61.1841 45.3834 60.2572 45.9384 59.2503 46.265C58.2597 46.5871 56.9875 46.7503 55.4691 46.7503H52.4084L51.535 51.239C51.5009 51.4134 51.3481 51.539 51.1703 51.539H47.24Z" fill="black"/>
<path d="M54.7353 36.7401H56.8159C58.4775 36.7401 59.0544 37.1042 59.2506 37.321C59.5759 37.681 59.6375 38.4404 59.4281 39.5167C59.1931 40.7217 58.7575 41.576 58.1337 42.0557C57.4947 42.5467 56.4559 42.7957 55.0462 42.7957H53.5566L54.7353 36.7401ZM58.3044 32.4148H50.7466C50.3909 32.4148 50.0853 32.6667 50.0175 33.0148L46.5109 51.027C46.4684 51.2445 46.5256 51.4692 46.6669 51.6398C46.8078 51.811 47.0181 51.9098 47.24 51.9098H51.1703C51.5256 51.9098 51.8316 51.6582 51.8994 51.3098L52.7147 47.121H55.4687C57.0262 47.121 58.3375 46.9517 59.3656 46.617C60.4228 46.2742 61.3956 45.6926 62.2569 44.8889C62.9687 44.2348 63.555 43.501 63.9994 42.707C64.4441 41.9126 64.7634 41.027 64.9484 40.0745C65.4084 37.7135 65.035 35.8229 63.8384 34.4557C62.6534 33.1017 60.7916 32.4148 58.3044 32.4148ZM52.6556 43.5373H55.0462C56.6306 43.5373 57.8112 43.2392 58.5869 42.6432C59.3625 42.047 59.8853 41.0523 60.1575 39.6579C60.4175 38.3192 60.2991 37.3745 59.8019 36.8242C59.3044 36.2742 58.3091 35.9989 56.8159 35.9989H54.1231L52.6556 43.5373ZM58.3044 33.1564C60.5778 33.1564 62.2366 33.752 63.2791 34.9435C64.3216 36.1351 64.6353 37.7979 64.2197 39.9332C64.0484 40.8126 63.7587 41.6167 63.3512 42.3454C62.9431 43.0742 62.41 43.7407 61.7516 44.3454C60.9669 45.0785 60.095 45.601 59.1356 45.912C58.1762 46.2242 56.9544 46.3795 55.4687 46.3795H52.1022L51.1703 51.1682H47.24L50.7466 33.1564H58.3044Z" fill="white"/>
</g>
<defs>
<radialGradient id="paint0_radial_2196_45830" cx="0" cy="0" r="1" gradientUnits="userSpaceOnUse" gradientTransform="translate(26.3238 29.449) scale(44.9422 44.8669)">
<stop stop-color="#AEB2D5"/>
<stop offset="0.3" stop-color="#AEB2D5"/>
<stop offset="0.75" stop-color="#484C89"/>
<stop offset="1" stop-color="#484C89"/>
</radialGradient>
</defs>
</svg>
