<svg width="80" height="81" viewBox="0 0 80 81" fill="none" xmlns="http://www.w3.org/2000/svg">
<g clip-path="url(#clip0_2196_45843)">
<path d="M39.092 0.500654C35.8292 0.515815 32.7133 0.794077 29.9718 1.2792C21.8955 2.70603 20.429 5.69252 20.429 11.2001V18.474H39.5145V20.8985H20.429H13.2664C7.71967 20.8985 2.86275 24.2325 1.34357 30.5748C-0.408784 37.8445 -0.48651 42.381 1.34357 49.9717C2.70023 55.622 5.94013 59.6478 11.4869 59.6478H18.049V50.9282C18.049 44.6287 23.4993 39.072 29.9718 39.072H49.035C54.3417 39.072 58.5778 34.7028 58.5778 29.3737V11.2001C58.5778 6.02782 54.2145 2.14243 49.035 1.2792C45.7565 0.733435 42.3547 0.485494 39.092 0.500654ZM28.7707 6.35087C30.742 6.35087 32.352 7.98708 32.352 9.99892C32.352 12.0036 30.742 13.6247 28.7707 13.6247C26.7922 13.6247 25.1893 12.0036 25.1893 9.99892C25.1893 7.98708 26.7922 6.35087 28.7707 6.35087Z" fill="url(#paint0_linear_2196_45843)"/>
<path d="M60.958 20.8984V29.3734C60.958 35.9441 55.3873 41.4743 49.035 41.4743H29.9718C24.75 41.4743 20.429 45.9434 20.429 51.1728V69.3463C20.429 74.5186 24.9267 77.5608 29.9718 79.0448C36.0132 80.8211 41.8067 81.1421 49.035 79.0448C53.84 77.6536 58.5778 74.8538 58.5778 69.3463V62.0724H39.5145V59.6478H58.5778H68.1205C73.6673 59.6478 75.7343 55.7788 77.6633 49.9716C79.6558 43.9931 79.5711 38.2439 77.6633 30.5746C76.2925 25.0528 73.6743 20.8984 68.1205 20.8984H60.958ZM50.2363 66.9216C52.2147 66.9216 53.8175 68.5428 53.8175 70.5474C53.8175 72.5593 52.2147 74.1954 50.2363 74.1954C48.2648 74.1954 46.655 72.5593 46.655 70.5474C46.655 68.5428 48.2648 66.9216 50.2363 66.9216Z" fill="url(#paint1_linear_2196_45843)"/>
</g>
<defs>
<linearGradient id="paint0_linear_2196_45843" x1="-3.9628e-07" y1="0.5" x2="44.009" y2="38.0018" gradientUnits="userSpaceOnUse">
<stop stop-color="#5A9FD4"/>
<stop offset="1" stop-color="#306998"/>
</linearGradient>
<linearGradient id="paint1_linear_2196_45843" x1="49.7777" y1="69.9359" x2="33.9888" y2="47.8111" gradientUnits="userSpaceOnUse">
<stop stop-color="#FFD43B"/>
<stop offset="1" stop-color="#FFE873"/>
</linearGradient>
<clipPath id="clip0_2196_45843">
<rect width="80" height="80" fill="white" transform="translate(0 0.5)"/>
</clipPath>
</defs>
</svg>
