<svg width="90" height="81" viewBox="0 0 90 81" fill="none" xmlns="http://www.w3.org/2000/svg">
<g clip-path="url(#clip0_2196_45899)">
<mask id="mask0_2196_45899" style="mask-type:luminance" maskUnits="userSpaceOnUse" x="0" y="0" width="90" height="80">
<path d="M89.5 0.5H0.5V79.9538H89.5V0.5Z" fill="white"/>
</mask>
<g mask="url(#mask0_2196_45899)">
<path d="M44.9998 48.1864C49.381 48.1864 52.9325 44.6227 52.9325 40.2268C52.9325 35.8309 49.381 32.2673 44.9998 32.2673C40.6188 32.2673 37.0673 35.8309 37.0673 40.2268C37.0673 44.6227 40.6188 48.1864 44.9998 48.1864Z" fill="#61DAFB"/>
<path d="M45 56.5339C68.5081 56.5339 87.5652 49.2329 87.5652 40.2265C87.5652 31.2202 68.5081 23.9192 45 23.9192C21.4918 23.9192 2.43475 31.2202 2.43475 40.2265C2.43475 49.2329 21.4918 56.5339 45 56.5339Z" stroke="#61DAFB" stroke-width="3"/>
<path d="M30.9252 48.3803C42.6793 68.8082 58.5093 81.7176 66.2827 77.2145C74.0559 72.7112 70.8289 52.5008 59.0748 32.0729C47.3209 11.6452 31.4907 -1.26428 23.7175 3.23888C15.9442 7.74204 19.1713 27.9525 30.9252 48.3803Z" stroke="#61DAFB" stroke-width="3"/>
<path d="M30.925 32.073C19.1711 52.5007 15.944 72.7113 23.7173 77.2144C31.4906 81.7177 47.3207 68.8081 59.0746 48.3804C70.8287 27.9526 74.0557 7.74204 66.2825 3.23888C58.5093 -1.26428 42.6792 11.6452 30.925 32.073Z" stroke="#61DAFB" stroke-width="3"/>
</g>
</g>
<defs>
<clipPath id="clip0_2196_45899">
<rect width="89" height="80" fill="white" transform="translate(0.5 0.5)"/>
</clipPath>
</defs>
</svg>
