<svg width="90" height="81" viewBox="0 0 90 81" fill="none" xmlns="http://www.w3.org/2000/svg">
<g clip-path="url(#clip0_868_6980)">
<mask id="mask0_868_6980" style="mask-type:luminance" maskUnits="userSpaceOnUse" x="0" y="0" width="90" height="80">
<path d="M89.5 0.5H0.5V79.9538H89.5V0.5Z" fill="white"/>
</mask>
<g mask="url(#mask0_868_6980)">
<path d="M44.9989 48.1886C49.3801 48.1886 52.9316 44.6249 52.9316 40.229C52.9316 35.8331 49.3801 32.2695 44.9989 32.2695C40.6179 32.2695 37.0664 35.8331 37.0664 40.229C37.0664 44.6249 40.6179 48.1886 44.9989 48.1886Z" fill="#61DAFB"/>
<path d="M44.9988 56.5346C68.5069 56.5346 87.564 49.2336 87.564 40.2273C87.564 31.2209 68.5069 23.9199 44.9988 23.9199C21.4906 23.9199 2.43359 31.2209 2.43359 40.2273C2.43359 49.2336 21.4906 56.5346 44.9988 56.5346Z" stroke="#61DAFB" stroke-width="3"/>
<path d="M30.9241 48.3812C42.6782 68.8091 58.5081 81.7185 66.2815 77.2155C74.0547 72.7122 70.8278 52.5018 59.0736 32.0739C47.3197 11.6461 31.4896 -1.26331 23.7164 3.23985C15.943 7.74302 19.1701 27.9535 30.9241 48.3812Z" stroke="#61DAFB" stroke-width="3"/>
<path d="M30.9241 32.074C19.1701 52.5017 15.943 72.7123 23.7164 77.2154C31.4896 81.7186 47.3197 68.8091 59.0736 48.3813C70.8278 27.9536 74.0547 7.74302 66.2815 3.23985C58.5083 -1.26331 42.6782 11.6462 30.9241 32.074Z" stroke="#61DAFB" stroke-width="3"/>
</g>
</g>
<defs>
<clipPath id="clip0_868_6980">
<rect width="89" height="80" fill="white" transform="translate(0.5 0.5)"/>
</clipPath>
</defs>
</svg>
