<svg width="80" height="81" viewBox="0 0 80 81" fill="none" xmlns="http://www.w3.org/2000/svg">
<g clip-path="url(#clip0_2196_45886)">
<path d="M79.9944 22.6584C79.9896 21.8539 79.9808 21.0496 79.9585 20.2441C79.9116 18.492 79.808 16.7239 79.4966 14.9904C79.1806 13.23 78.664 11.5931 77.8499 9.99397C77.0508 8.4235 76.006 6.98637 74.7598 5.74013C73.5137 4.49388 72.0766 3.44928 70.5055 2.64969C68.9076 1.8365 67.2705 1.32006 65.5117 1.00405C63.7774 0.691679 62.0093 0.588768 60.2558 0.541353C59.4506 0.519532 58.6463 0.510372 57.8415 0.505388C56.8861 0.5 55.9302 0.5 54.9751 0.5H33.7981H25.0249C24.0689 0.5 23.114 0.5 22.159 0.505523C21.3539 0.510507 20.5486 0.519666 19.7448 0.541488C19.3064 0.553341 18.8671 0.568697 18.4276 0.589845C17.1092 0.653424 15.7888 0.76994 14.4886 1.00419C13.1695 1.24126 11.9186 1.59094 10.7018 2.09405C10.2962 2.26161 9.89423 2.44643 9.4947 2.64969C8.31634 3.24938 7.21314 3.98686 6.20975 4.84382C5.87529 5.12953 5.55188 5.42842 5.24045 5.73999C3.99392 6.98624 2.94919 8.42336 2.15001 9.99384C1.33588 11.593 0.819975 13.2299 0.503698 14.9903C0.192539 16.7238 0.0890885 18.4919 0.0419432 20.244C0.0198524 21.0495 0.010558 21.8538 0.00530466 22.6583C-0.000756867 23.6139 5.13359e-05 24.5695 5.13359e-05 25.5249V38.5664V55.4748C5.13359e-05 56.431 -0.000891568 57.3858 0.00530466 58.342C0.010558 59.1465 0.0198524 59.9507 0.0419432 60.7549C0.0890885 62.508 0.192404 64.2765 0.503698 66.0091C0.819975 67.769 1.33588 69.4074 2.15001 71.0061C2.94919 72.577 3.99392 74.0137 5.24045 75.2594C6.48602 76.5062 7.92355 77.5506 9.49484 78.3508C11.0928 79.1641 12.7297 79.6799 14.489 79.9959C16.2224 80.3079 17.9918 80.4116 19.7449 80.4585C20.5487 80.4799 21.354 80.4895 22.1591 80.494C23.1141 80.5009 24.069 80.5 25.025 80.5H54.9751C55.9302 80.5 56.8861 80.5009 57.8414 80.494C58.6461 80.4895 59.4505 80.4799 60.2556 80.4585C62.0091 80.4116 63.7773 80.3077 65.5116 79.9959C67.2704 79.6799 68.9075 79.164 70.5054 78.3508C72.0765 77.5509 73.5136 76.5062 74.7596 75.2594C76.0059 74.0136 77.0508 72.577 77.8497 71.0061C78.6639 69.4074 79.1805 67.7691 79.4965 66.0091C79.8079 64.2765 79.9115 62.508 79.9584 60.7549C79.9805 59.9507 79.9894 59.1466 79.9942 58.342C80.0004 57.3858 79.9999 56.431 79.9999 55.4748V25.5249C80 24.5695 80.0004 23.6139 79.9944 22.6584Z" fill="#F05138"/>
<path d="M63.3909 49.8823C63.389 49.8799 63.3873 49.8782 63.3853 49.8759C63.4738 49.5747 63.565 49.2754 63.6425 48.9667C66.9629 35.7378 58.8591 20.0978 45.1459 11.8628C51.1554 20.0094 53.8124 29.8768 51.4516 38.5059C51.2411 39.2757 50.988 40.0143 50.7083 40.7323C50.4046 40.5328 50.0221 40.3063 49.5084 40.023C49.5084 40.023 35.8674 31.6007 21.0828 16.7034C20.6948 16.3124 28.9665 28.526 38.3539 38.4439C33.9311 35.9618 21.6055 26.9939 13.8025 19.8522C14.7613 21.4509 15.9015 22.9904 17.1549 24.4725C23.671 32.7363 32.1689 42.9324 42.3496 50.7619C35.1965 55.1394 25.089 55.4798 15.0254 50.7665C12.5363 49.6 10.1962 48.1925 8.03009 46.5934C12.29 53.4072 18.8509 59.286 26.836 62.7182C36.3588 66.8104 45.8283 66.5329 52.8813 62.7852L52.8758 62.7933C52.9079 62.7729 52.9489 62.7507 52.9823 62.73C53.2719 62.5744 53.5594 62.4158 53.8405 62.2484C57.2291 60.4895 63.9224 58.7049 67.515 65.6952C68.3949 67.4058 70.2645 58.3399 63.3909 49.8823Z" fill="white"/>
</g>
<defs>
<clipPath id="clip0_2196_45886">
<rect width="80" height="80" fill="white" transform="translate(0 0.5)"/>
</clipPath>
</defs>
</svg>
