<svg width="132" height="81" viewBox="0 0 132 81" fill="none" xmlns="http://www.w3.org/2000/svg">
<g clip-path="url(#clip0_868_7071)">
<mask id="mask0_868_7071" style="mask-type:luminance" maskUnits="userSpaceOnUse" x="0" y="0" width="132" height="81">
<path d="M131.159 0.5H0.5V80.5H131.159V0.5Z" fill="white"/>
</mask>
<g mask="url(#mask0_868_7071)">
<mask id="mask1_868_7071" style="mask-type:luminance" maskUnits="userSpaceOnUse" x="0" y="0" width="132" height="80">
<path d="M0.5 0.5H131.159V79.0455H0.5V0.5Z" fill="white"/>
</mask>
<g mask="url(#mask1_868_7071)">
<path fill-rule="evenodd" clip-rule="evenodd" d="M65.8298 0.5C48.4086 0.5 37.5202 9.22727 33.1649 26.6819C39.6979 17.9545 47.3198 14.6819 56.0304 16.8636C61.0003 18.1073 64.5523 21.7219 68.4843 25.7194C74.8889 32.2334 82.3026 39.7728 98.4949 39.7728C115.916 39.7728 126.804 31.0455 131.159 13.5909C124.627 22.3181 117.005 25.5909 108.294 23.4091C103.324 22.1655 99.7724 18.5509 95.8404 14.5534C89.4358 8.0394 82.022 0.5 65.8298 0.5ZM33.1649 39.7728C15.7437 39.7728 4.85533 48.5 0.5 65.9545C7.03298 57.2273 14.6549 53.9545 23.3655 56.1364C28.3354 57.3824 31.8874 60.9945 35.8192 64.9921C42.224 71.5061 49.6377 79.0455 65.8298 79.0455C83.2512 79.0455 94.1394 70.3181 98.4949 52.8636C91.9618 61.5909 84.34 64.8636 75.6294 62.6819C70.6595 61.4381 67.1074 57.8236 63.1755 53.826C56.7707 47.3121 49.357 39.7728 33.1649 39.7728Z" fill="#38BDF8"/>
</g>
</g>
</g>
<defs>
<clipPath id="clip0_868_7071">
<rect width="131" height="80" fill="white" transform="translate(0.5 0.5)"/>
</clipPath>
</defs>
</svg>
