<svg width="80" height="81" viewBox="0 0 80 81" fill="none" xmlns="http://www.w3.org/2000/svg">
<g clip-path="url(#clip0_868_7060)">
<mask id="mask0_868_7060" style="mask-type:luminance" maskUnits="userSpaceOnUse" x="0" y="0" width="80" height="81">
<path d="M80 0.5H0V80.5H80V0.5Z" fill="white"/>
</mask>
<g mask="url(#mask0_868_7060)">
<path d="M72.1875 0.5H7.8125C3.49777 0.5 0 3.99777 0 8.3125V72.6875C0 77.0023 3.49777 80.5 7.8125 80.5H72.1875C76.5023 80.5 80 77.0023 80 72.6875V8.3125C80 3.99777 76.5023 0.5 72.1875 0.5Z" fill="#3178C6"/>
<path d="M72.1875 0.5H7.8125C3.49777 0.5 0 3.99777 0 8.3125V72.6875C0 77.0023 3.49777 80.5 7.8125 80.5H72.1875C76.5023 80.5 80 77.0023 80 72.6875V8.3125C80 3.99777 76.5023 0.5 72.1875 0.5Z" fill="#3178C6"/>
<path fill-rule="evenodd" clip-rule="evenodd" d="M49.5218 64.16V71.982C50.7933 72.6339 52.2971 73.1226 54.0334 73.4486C55.7696 73.7745 57.5995 73.9375 59.5232 73.9375C61.3981 73.9375 63.179 73.7583 64.8664 73.3997C66.5537 73.0413 68.0333 72.4505 69.3049 71.6275C70.5764 70.8048 71.5831 69.7291 72.3249 68.401C73.0665 67.0729 73.4375 65.4311 73.4375 63.4756C73.4375 62.0579 73.2256 60.8154 72.8018 59.748C72.3778 58.6806 71.7665 57.7314 70.9676 56.9004C70.1689 56.0693 69.2111 55.3236 68.0944 54.6636C66.9776 54.0036 65.7183 53.3802 64.3162 52.7937C63.2892 52.37 62.3681 51.9586 61.553 51.5594C60.7378 51.16 60.045 50.7526 59.4744 50.3373C58.9037 49.9216 58.4636 49.4816 58.1539 49.0173C57.8443 48.5526 57.6893 48.0272 57.6893 47.4405C57.6893 46.9029 57.8279 46.418 58.105 45.9861C58.3823 45.5543 58.7735 45.1836 59.2788 44.8739C59.7843 44.5644 60.4036 44.3239 61.1373 44.1527C61.871 43.9817 62.6859 43.8962 63.5826 43.8962C64.2346 43.8962 64.9235 43.9451 65.6489 44.0429C66.3744 44.1406 67.1039 44.2914 67.8376 44.495C68.5713 44.6987 69.2844 44.9555 69.9774 45.265C70.6701 45.5748 71.31 45.9331 71.8969 46.3406V39.0319C70.7069 38.5756 69.4067 38.2375 67.9966 38.0175C66.5864 37.7975 64.9683 37.6875 63.1425 37.6875C61.2839 37.6875 59.5232 37.8871 57.8605 38.2864C56.1976 38.6856 54.7345 39.3089 53.4709 40.1563C52.2075 41.0038 51.209 42.0833 50.4755 43.3951C49.7419 44.7069 49.375 46.2754 49.375 48.1005C49.375 50.4307 50.0475 52.4189 51.3925 54.0649C52.7374 55.7106 54.7793 57.1039 57.5181 58.2448C58.594 58.6848 59.5967 59.1164 60.5259 59.5401C61.4551 59.9639 62.2581 60.4039 62.9345 60.8601C63.6111 61.3164 64.145 61.8134 64.5364 62.3512C64.9276 62.8889 65.1232 63.5 65.1232 64.1845C65.1232 64.6896 65.001 65.1581 64.7564 65.59C64.5119 66.0219 64.141 66.3966 63.6438 66.7144C63.1466 67.0323 62.527 67.2806 61.7852 67.4599C61.0434 67.6393 60.1755 67.7288 59.1809 67.7288C57.4855 67.7288 55.8064 67.4314 54.1435 66.8365C52.4806 66.2419 50.94 65.3498 49.5218 64.16ZM36.3719 44.8879H46.4062V38.4688H18.4375V44.8879H28.4229V73.4688H36.3719V44.8879Z" fill="white"/>
</g>
</g>
<defs>
<clipPath id="clip0_868_7060">
<rect width="80" height="80" fill="white" transform="translate(0 0.5)"/>
</clipPath>
</defs>
</svg>
